<svg xmlns="http://www.w3.org/2000/svg" width="2000" height="2000" viewBox="0 0 2000 2000" version="1.1"><path d="M 1115.782 498.500 C 1115.938 551.850, 1116.203 596.850, 1116.372 598.500 C 1116.992 604.548, 1116.768 419.211, 1116.144 410.500 C 1115.790 405.550, 1115.627 445.150, 1115.782 498.500 M 887.484 528.500 C 887.484 593.400, 887.604 619.803, 887.750 587.173 C 887.896 554.543, 887.896 501.443, 887.750 469.173 C 887.603 436.903, 887.484 463.600, 887.484 528.500 M 1115.750 613.907 C 1115.338 620.731, 1115.063 630.631, 1115.139 635.907 L 1115.278 645.500 1116.154 635 C 1116.635 629.225, 1116.910 619.325, 1116.765 613 L 1116.500 601.500 1115.750 613.907 M 1535 1058 C 1535 1063.683, 1535.250 1068.084, 1535.555 1067.778 C 1536.269 1067.064, 1536.255 1048.922, 1535.540 1048.207 C 1535.243 1047.910, 1535 1052.317, 1535 1058 M 239.425 1091 C 239.425 1102.825, 239.569 1107.662, 239.746 1101.750 C 239.923 1095.838, 239.923 1086.162, 239.746 1080.250 C 239.569 1074.338, 239.425 1079.175, 239.425 1091" stroke="none" fill="#080404" fill-rule="evenodd"/><path d="M 985 288.662 C 982.525 289.483, 979.600 290.579, 978.500 291.098 C 977.400 291.617, 975.375 291.983, 974 291.911 C 972.625 291.840, 967.984 293.181, 963.686 294.891 C 959.389 296.601, 955.339 298.016, 954.686 298.036 C 953.428 298.074, 941.777 305.065, 932.849 311.139 C 926.057 315.760, 913.625 328.439, 907.002 337.500 C 901.773 344.653, 894 359.594, 894 362.490 C 894 363.375, 893.375 365.314, 892.610 366.800 C 891.846 368.285, 890.707 372.829, 890.078 376.897 C 889.450 380.965, 888.716 384.651, 888.446 385.087 C 887.365 386.837, 887.965 661.485, 889.063 666.995 C 892.521 684.363, 896.648 694.609, 905.248 707.179 C 913.427 719.134, 933.713 739.230, 939.255 740.868 C 939.940 741.070, 942.544 742.520, 945.043 744.089 C 947.541 745.658, 951.591 747.642, 954.043 748.498 C 956.494 749.353, 960.525 750.997, 963 752.150 C 965.475 753.304, 970.570 754.634, 974.323 755.106 C 978.076 755.577, 982.801 756.458, 984.823 757.062 C 992.717 759.421, 1036.780 756.015, 1037.833 752.965 C 1038.017 752.434, 1038.692 752.002, 1039.333 752.005 C 1042.261 752.019, 1057.220 745.126, 1064 740.639 C 1073.476 734.368, 1088.854 718.715, 1096.285 707.773 C 1099.428 703.146, 1102 698.884, 1102 698.302 C 1102 697.721, 1102.646 696.709, 1103.436 696.053 C 1104.225 695.398, 1105.177 693.430, 1105.551 691.681 C 1105.925 689.931, 1106.535 688.050, 1106.907 687.500 C 1108.113 685.715, 1110.844 676.508, 1112.542 668.500 C 1113.246 665.175, 1114.609 643.532, 1115.753 617.500 C 1116.879 591.864, 1115.499 404.761, 1114.086 391.507 C 1111.508 367.336, 1106.448 353.569, 1093.866 336.500 C 1075.317 311.335, 1051.020 295.693, 1020.500 289.267 C 1010.340 287.128, 990.640 286.792, 985 288.662 M 653.515 416.592 C 648.573 417.394, 642.694 418.938, 640.449 420.025 C 638.205 421.111, 636.039 422, 635.636 422 C 635.233 422, 632.338 423.647, 629.202 425.660 C 626.066 427.673, 621.025 430.659, 618 432.296 C 614.975 433.934, 611.600 436.039, 610.500 436.975 C 609.400 437.911, 607.019 439.261, 605.209 439.976 C 603.399 440.691, 600.712 442.227, 599.239 443.388 C 597.765 444.550, 594.446 446.850, 591.862 448.500 C 589.278 450.150, 583.719 453.863, 579.509 456.750 C 575.298 459.637, 571.497 462, 571.062 462 C 570.627 462, 566.948 464.600, 562.886 467.777 C 558.824 470.954, 552.350 475.761, 548.500 478.458 C 537.829 485.933, 503 514.017, 499.201 518.210 C 497.353 520.250, 492.164 525.041, 487.670 528.856 C 478.135 536.952, 452.962 561.510, 448.742 566.834 C 447.143 568.850, 442.817 573.650, 439.129 577.500 C 427.763 589.363, 413.926 605.118, 405.318 616 C 396.414 627.254, 378.746 650.983, 373.923 658.164 C 362.297 675.476, 358.308 681.657, 357.685 683.329 C 357.309 684.335, 355.482 687.485, 353.624 690.329 C 347.135 700.262, 338 715.110, 338 715.724 C 338 716.064, 337.364 717.053, 336.587 717.921 C 335.810 718.790, 331.064 727.579, 326.041 737.452 C 321.019 747.326, 316.485 755.915, 315.968 756.539 C 315.450 757.162, 314.400 759.434, 313.635 761.586 C 312.869 763.739, 310.447 769.325, 308.252 774 C 300.005 791.566, 298 796.027, 298 796.808 C 298 797.919, 291.400 814.206, 287.984 821.524 C 286.438 824.836, 283.939 831.361, 282.430 836.024 C 280.922 840.686, 279.308 844.928, 278.844 845.450 C 278.380 845.972, 278 847.085, 278 847.922 C 278 849.600, 274.314 862.334, 272.911 865.500 C 272.424 866.600, 271.319 870.200, 270.455 873.500 C 269.591 876.800, 268.023 882.785, 266.970 886.800 C 265.918 890.815, 264.788 894.534, 264.461 895.064 C 263.342 896.874, 260.202 909.488, 259 917 C 258.340 921.125, 256.926 927.650, 255.858 931.500 C 254.790 935.350, 253.500 941.650, 252.992 945.500 C 251.385 957.672, 249.343 969.636, 248.693 970.688 C 248.089 971.665, 246.708 983.963, 244.952 1004 C 244.495 1009.225, 243.676 1015.975, 243.133 1019 C 242.590 1022.025, 242.111 1028.550, 242.067 1033.500 C 242.024 1038.450, 241.531 1045.200, 240.972 1048.500 C 239.676 1056.151, 239.685 1124.366, 240.983 1133 C 241.520 1136.575, 241.971 1142.875, 241.984 1147 C 241.997 1151.125, 242.637 1158.550, 243.405 1163.500 C 244.173 1168.450, 245.310 1177.675, 245.931 1184 C 246.551 1190.325, 247.515 1198.200, 248.072 1201.500 C 249.214 1208.271, 250.045 1213.685, 252.372 1229.500 C 253.982 1240.448, 254.895 1244.783, 256.797 1250.500 C 257.345 1252.150, 258.320 1256.875, 258.963 1261 C 260.512 1270.941, 262.804 1280.799, 264.425 1284.500 C 265.148 1286.150, 266.728 1291.775, 267.935 1297 C 269.143 1302.225, 270.976 1309.200, 272.009 1312.500 C 273.043 1315.800, 274.843 1321.875, 276.011 1326 C 277.179 1330.125, 278.976 1335.750, 280.004 1338.500 C 281.033 1341.250, 283.040 1346.942, 284.463 1351.149 C 285.886 1355.356, 288.093 1360.758, 289.367 1363.154 C 290.641 1365.550, 292.263 1369.308, 292.972 1371.505 C 293.681 1373.702, 294.576 1375.950, 294.961 1376.500 C 295.347 1377.050, 296.691 1380.425, 297.949 1384 C 300.190 1390.369, 302.288 1395.264, 308.104 1407.687 C 309.697 1411.090, 311 1414.122, 311 1414.424 C 311 1415.350, 323.215 1440.120, 326.818 1446.500 C 328.682 1449.800, 332.263 1456.325, 334.776 1461 C 337.289 1465.675, 340.819 1471.525, 342.621 1474 C 344.422 1476.475, 347.041 1480.909, 348.440 1483.854 C 349.840 1486.798, 353.125 1492.349, 355.742 1496.188 C 358.359 1500.027, 362.075 1505.546, 364 1508.451 C 368.041 1514.549, 376.114 1526.323, 381.075 1533.353 C 382.959 1536.022, 385.400 1539.484, 386.500 1541.046 C 391.390 1547.992, 398.877 1557.639, 403.192 1562.551 C 405.772 1565.489, 408.697 1569.147, 409.692 1570.680 C 410.686 1572.213, 412.175 1574.171, 413 1575.032 C 413.825 1575.892, 416.975 1579.677, 420 1583.442 C 438.674 1606.685, 492.864 1659.950, 515 1676.821 C 518.025 1679.127, 523.425 1683.539, 527 1686.627 C 530.575 1689.714, 535.300 1693.424, 537.500 1694.870 C 539.700 1696.317, 545.775 1700.910, 551 1705.077 C 556.225 1709.244, 562.750 1713.941, 565.500 1715.515 C 568.250 1717.089, 571.675 1719.305, 573.111 1720.439 C 574.548 1721.572, 577.698 1723.749, 580.111 1725.275 C 582.525 1726.801, 587.200 1729.827, 590.500 1732 C 593.800 1734.173, 599.425 1737.609, 603 1739.636 C 606.575 1741.663, 610.175 1743.893, 611.001 1744.591 C 612.362 1745.741, 624.170 1752.512, 633 1757.205 C 639.473 1760.645, 648.457 1765.614, 654.500 1769.096 C 657.800 1770.997, 663.425 1773.828, 667 1775.386 C 670.575 1776.944, 675.750 1779.225, 678.500 1780.455 C 685.986 1783.802, 696.237 1788.181, 698.500 1788.998 C 699.600 1789.395, 704.325 1791.571, 709 1793.834 C 713.675 1796.096, 721.325 1799.249, 726 1800.841 C 741.064 1805.970, 752.349 1810.129, 755.198 1811.602 C 756.726 1812.393, 761.470 1813.732, 765.739 1814.579 C 770.007 1815.425, 775.525 1817.159, 778 1818.431 C 783.152 1821.080, 794.394 1824.579, 801 1825.590 C 803.475 1825.968, 806.631 1826.847, 808.013 1827.542 C 809.395 1828.238, 812.770 1829.108, 815.513 1829.477 C 818.256 1829.847, 822.525 1830.789, 825 1831.573 C 827.475 1832.356, 836.025 1834.137, 844 1835.530 C 851.975 1836.923, 860.197 1838.723, 862.270 1839.531 C 864.408 1840.364, 869.388 1841.007, 873.770 1841.016 C 878.022 1841.024, 885.775 1841.971, 891 1843.120 C 896.225 1844.268, 904.550 1845.563, 909.500 1845.997 C 914.450 1846.431, 920.525 1847.274, 923 1847.870 C 928.899 1849.292, 970.761 1851, 999.714 1851 C 1033.021 1851, 1073.273 1849.168, 1078.207 1847.427 C 1080.432 1846.642, 1085.597 1846, 1089.685 1846 C 1093.878 1846, 1101.779 1844.957, 1107.810 1843.608 C 1113.689 1842.293, 1122.003 1841.158, 1126.285 1841.086 C 1130.566 1841.015, 1135.741 1840.340, 1137.785 1839.587 C 1141.540 1838.203, 1146.748 1837.098, 1159.500 1834.981 C 1163.350 1834.342, 1169.438 1832.960, 1173.028 1831.909 C 1176.619 1830.859, 1180.779 1830, 1182.274 1830 C 1183.769 1830, 1187.581 1829.133, 1190.746 1828.074 C 1193.911 1827.014, 1198.075 1825.848, 1200 1825.482 C 1205.977 1824.346, 1217.268 1820.799, 1222.500 1818.413 C 1225.250 1817.160, 1230.200 1815.633, 1233.500 1815.020 C 1236.800 1814.408, 1242.200 1812.640, 1245.500 1811.092 C 1248.800 1809.544, 1253.957 1807.751, 1256.959 1807.108 C 1259.961 1806.465, 1265.136 1804.649, 1268.459 1803.072 C 1271.782 1801.495, 1276.703 1799.693, 1279.395 1799.068 C 1282.087 1798.442, 1285.577 1797.013, 1287.152 1795.892 C 1288.726 1794.771, 1293.605 1792.597, 1297.993 1791.061 C 1302.381 1789.525, 1306.540 1787.850, 1307.236 1787.337 C 1307.931 1786.825, 1310.975 1785.373, 1314 1784.112 C 1317.025 1782.850, 1321.300 1780.984, 1323.500 1779.964 C 1325.700 1778.945, 1332 1776.058, 1337.500 1773.549 C 1343 1771.039, 1348.175 1768.546, 1349 1768.009 C 1349.825 1767.471, 1352.525 1765.842, 1355 1764.388 C 1357.475 1762.934, 1360.625 1760.980, 1362 1760.046 C 1363.375 1759.111, 1367.081 1757.172, 1370.235 1755.735 C 1373.390 1754.299, 1377.482 1751.971, 1379.330 1750.562 C 1381.177 1749.153, 1383.141 1748, 1383.694 1748 C 1384.247 1748, 1386.455 1746.744, 1388.600 1745.208 C 1390.745 1743.672, 1394.916 1741.165, 1397.869 1739.636 C 1400.822 1738.107, 1403.747 1736.421, 1404.369 1735.890 C 1404.991 1735.358, 1412.925 1730.053, 1422 1724.099 C 1436.485 1714.596, 1445.211 1708.340, 1471.750 1688.430 C 1475.187 1685.852, 1478 1683.394, 1478 1682.968 C 1478 1682.543, 1480.362 1680.614, 1483.250 1678.682 C 1501.905 1666.200, 1555.815 1612.865, 1582.996 1580 C 1586.863 1575.325, 1592.483 1568.575, 1595.487 1565 C 1604.217 1554.609, 1606.446 1551.778, 1609.656 1547 C 1614.969 1539.093, 1629.037 1519.600, 1631.561 1516.647 C 1632.902 1515.078, 1634.030 1513.278, 1634.066 1512.647 C 1634.103 1512.016, 1635.671 1509.475, 1637.550 1507 C 1639.430 1504.525, 1642.092 1500.394, 1643.465 1497.821 C 1644.838 1495.247, 1646.431 1492.852, 1647.004 1492.497 C 1647.578 1492.143, 1649.386 1489.074, 1651.023 1485.677 C 1652.660 1482.279, 1655.365 1477.609, 1657.034 1475.297 C 1658.703 1472.986, 1662.821 1465.786, 1666.185 1459.297 C 1669.549 1452.809, 1673.355 1445.827, 1674.642 1443.783 C 1675.930 1441.738, 1678.268 1437.463, 1679.838 1434.283 C 1681.408 1431.102, 1683.414 1427.150, 1684.296 1425.500 C 1686.069 1422.182, 1692.284 1408.790, 1692.417 1408 C 1692.520 1407.387, 1697.503 1395.996, 1700.101 1390.434 C 1701.145 1388.198, 1702 1385.893, 1702 1385.311 C 1702 1384.184, 1704.554 1377.971, 1708.706 1369 C 1711.698 1362.533, 1715.750 1351.952, 1717.130 1347 C 1717.667 1345.075, 1718.736 1342.150, 1719.505 1340.500 C 1720.275 1338.850, 1722.067 1333.450, 1723.486 1328.500 C 1724.906 1323.550, 1726.767 1317.250, 1727.623 1314.500 C 1730.534 1305.139, 1732.801 1296.509, 1733.528 1292.022 C 1733.927 1289.559, 1734.821 1286.634, 1735.516 1285.522 C 1736.697 1283.632, 1739.252 1272.951, 1740.427 1265 C 1740.711 1263.075, 1741.686 1258.800, 1742.592 1255.500 C 1743.499 1252.200, 1744.446 1248.375, 1744.697 1247 C 1744.948 1245.625, 1745.789 1241.350, 1746.566 1237.500 C 1748.720 1226.829, 1748.997 1225.122, 1749.974 1216.500 C 1750.473 1212.100, 1751.610 1204.900, 1752.501 1200.500 C 1761.311 1156.991, 1761.613 1024.920, 1752.998 983 C 1751.925 977.775, 1750.560 968.858, 1749.966 963.184 C 1749.371 957.510, 1747.525 946.935, 1745.864 939.684 C 1744.202 932.433, 1742.005 921.699, 1740.982 915.831 C 1738.796 903.300, 1737.330 897.545, 1735.348 893.709 C 1734.555 892.173, 1732.793 886.323, 1731.432 880.709 C 1730.072 875.094, 1728.333 868.925, 1727.568 867 C 1726.803 865.075, 1725.174 860.125, 1723.947 856 C 1720.312 843.774, 1712.896 821.693, 1711.521 819 C 1710.818 817.625, 1709.765 815.375, 1709.181 814 C 1708.596 812.625, 1706.741 808.275, 1705.059 804.332 C 1703.376 800.390, 1702 796.916, 1702 796.612 C 1702 796.308, 1700.849 793.458, 1699.443 790.280 C 1698.037 787.101, 1696.509 783.600, 1696.048 782.500 C 1692.217 773.361, 1669.620 727.534, 1667.887 725.392 C 1667.394 724.782, 1665.355 721.182, 1663.356 717.392 C 1661.358 713.601, 1657.714 707.377, 1655.259 703.561 C 1652.804 699.744, 1650.504 695.919, 1650.148 695.061 C 1649.465 693.416, 1641.902 681.856, 1640.949 681 C 1640.453 680.554, 1638.590 677.141, 1634.321 668.855 C 1633.572 667.401, 1632.261 665.632, 1631.409 664.925 C 1630.557 664.218, 1627.716 660.458, 1625.095 656.570 C 1614.439 640.759, 1596.702 617.631, 1585.989 605.576 C 1583.508 602.784, 1578.947 597.325, 1575.852 593.445 C 1572.758 589.565, 1566.567 582.590, 1562.094 577.945 C 1557.622 573.300, 1552.993 568.150, 1551.809 566.500 C 1550.624 564.850, 1547.145 561.250, 1544.078 558.500 C 1541.010 555.750, 1535.350 550.125, 1531.500 546 C 1527.650 541.875, 1521.871 536.250, 1518.659 533.500 C 1512.643 528.351, 1512.063 527.828, 1497.893 514.761 C 1493.277 510.505, 1487.166 505.330, 1484.314 503.261 C 1481.462 501.193, 1476.869 497.700, 1474.107 495.500 C 1471.345 493.300, 1466.284 489.475, 1462.860 487 C 1459.436 484.525, 1455.030 481.111, 1453.067 479.414 C 1451.105 477.716, 1442.975 471.920, 1435 466.532 C 1427.025 461.145, 1418.510 455.128, 1416.078 453.161 C 1413.646 451.194, 1409.590 448.441, 1407.065 447.042 C 1404.540 445.644, 1400.967 443.600, 1399.124 442.500 C 1397.282 441.400, 1390.988 437.644, 1385.137 434.152 C 1379.287 430.661, 1373.150 426.789, 1371.500 425.546 C 1369.850 424.304, 1367.375 422.962, 1366 422.563 C 1364.625 422.165, 1361.561 420.960, 1359.191 419.887 C 1345.231 413.562, 1304.460 413.981, 1288.509 420.614 C 1285.204 421.988, 1280.344 423.701, 1277.709 424.420 C 1275.074 425.140, 1271.924 426.633, 1270.709 427.739 C 1269.494 428.845, 1267.413 430.312, 1266.085 430.998 C 1258.318 435.014, 1242.733 448.748, 1237.714 456 C 1236.001 458.475, 1233.333 461.779, 1231.784 463.343 C 1227.709 467.457, 1223.227 474.246, 1222.394 477.567 C 1221.997 479.147, 1220.909 481.804, 1219.975 483.470 C 1219.041 485.137, 1217.293 490.325, 1216.091 495 C 1214.889 499.675, 1213.392 504.850, 1212.765 506.500 C 1212.136 508.155, 1211.452 517.312, 1211.239 526.926 C 1210.933 540.823, 1211.158 545.075, 1212.355 547.926 C 1213.180 549.892, 1214.117 553.406, 1214.437 555.736 C 1214.997 559.808, 1216.069 562.834, 1220.023 571.500 C 1221.027 573.700, 1222.136 576.507, 1222.487 577.738 C 1223.065 579.758, 1224.577 582.563, 1230.363 592.349 C 1231.388 594.082, 1232.517 595.725, 1232.872 596 C 1233.228 596.275, 1234.831 598.523, 1236.435 600.995 C 1238.040 603.467, 1240.510 606.379, 1241.926 607.468 C 1243.342 608.556, 1246.686 611.596, 1249.359 614.223 C 1252.031 616.850, 1254.617 619, 1255.106 619 C 1255.594 619, 1257.683 620.511, 1259.747 622.359 C 1261.811 624.206, 1267.775 627.907, 1273 630.584 C 1283.137 635.776, 1301.416 647.246, 1302.595 649.154 C 1303.017 649.836, 1301.399 651.973, 1298.621 654.402 C 1296.045 656.656, 1281.111 671.325, 1265.435 687 C 1249.760 702.675, 1236.442 715.950, 1235.839 716.500 C 1235.237 717.050, 1231.006 721.325, 1226.437 726 C 1221.868 730.675, 1217.538 735.058, 1216.815 735.741 C 1214.910 737.539, 1157.750 794.432, 1156.174 796.098 C 1145.933 806.928, 1002.387 949.258, 1000.908 950.049 C 999.313 950.903, 998.279 950.761, 996.183 949.401 C 994.707 948.444, 929.138 883.252, 850.473 804.531 C 731.459 685.432, 703.774 658.308, 695.089 652.296 C 693.333 651.081, 716.086 635.950, 730 629.079 C 733.575 627.314, 737.625 624.863, 739 623.632 C 740.375 622.402, 743.300 620.191, 745.500 618.720 C 756.511 611.356, 777.943 582.483, 777.990 574.950 C 777.996 574.097, 778.508 572.892, 779.130 572.270 C 780.642 570.758, 783.920 561.691, 785.193 555.500 C 785.759 552.750, 786.847 549.306, 787.611 547.846 C 789.379 544.468, 789.580 514.566, 787.863 510.315 C 787.238 508.767, 786.364 505.700, 785.920 503.500 C 782.394 485.997, 776.924 472.751, 770.211 465.464 C 768.170 463.248, 764.168 458.499, 761.318 454.911 C 754.899 446.830, 747.613 440.227, 738.500 434.231 C 734.650 431.698, 730.295 428.641, 728.821 427.437 C 727.348 426.234, 724.448 424.931, 722.377 424.543 C 720.305 424.154, 716.392 422.712, 713.681 421.339 C 706.407 417.652, 697.451 416.177, 679 415.627 C 667.225 415.276, 659.927 415.553, 653.515 416.592 M 1456.774 819.874 C 1454.068 823.233, 1388.802 889.279, 1379.076 898.500 C 1378.496 899.050, 1329.867 947.775, 1271.011 1006.777 C 1198.305 1079.664, 1164 1114.715, 1164 1116.115 C 1164 1117.520, 1207.908 1162.083, 1301.915 1256.088 C 1377.768 1331.940, 1440.243 1394, 1440.749 1394 C 1441.808 1394, 1447.971 1385.158, 1450.508 1380 C 1451.454 1378.075, 1453.265 1375.375, 1454.531 1374 C 1455.798 1372.625, 1458.286 1368.800, 1460.061 1365.500 C 1461.836 1362.200, 1463.786 1358.876, 1464.394 1358.114 C 1466.212 1355.837, 1471.643 1346.002, 1475.485 1338.033 C 1477.464 1333.926, 1479.488 1330.316, 1479.982 1330.011 C 1480.477 1329.705, 1482.506 1325.658, 1484.493 1321.018 C 1486.479 1316.377, 1488.455 1312.112, 1488.883 1311.540 C 1489.312 1310.968, 1490.689 1307.575, 1491.944 1304 C 1493.198 1300.425, 1495.026 1296.150, 1496.005 1294.500 C 1496.983 1292.850, 1498.107 1289.925, 1498.502 1288 C 1498.897 1286.075, 1500.567 1281.350, 1502.214 1277.500 C 1503.860 1273.650, 1506.706 1265.550, 1508.538 1259.500 C 1512.086 1247.782, 1512.844 1245.366, 1515.441 1237.500 C 1518.209 1229.117, 1520.025 1222.787, 1521.467 1216.500 C 1522.224 1213.200, 1523.358 1208.700, 1523.988 1206.500 C 1526.980 1196.042, 1532.400 1161.423, 1533.966 1142.762 C 1534.461 1136.857, 1535.160 1131.550, 1535.519 1130.970 C 1536.427 1129.501, 1536.180 1049.090, 1535.263 1047.661 C 1534.853 1047.023, 1534.211 1042.900, 1533.837 1038.500 C 1532.113 1018.248, 1526.902 985.691, 1523.123 971.562 C 1521.955 967.196, 1520.981 962.696, 1520.958 961.562 C 1520.934 960.428, 1519.774 956.350, 1518.378 952.500 C 1516.983 948.650, 1515.246 942.800, 1514.518 939.500 C 1513.790 936.200, 1512.520 931.700, 1511.695 929.500 C 1510.870 927.300, 1509.614 923.475, 1508.903 921 C 1508.193 918.525, 1506.742 914.475, 1505.680 912 C 1502.112 903.688, 1499.833 897.527, 1498.877 893.612 C 1498.355 891.473, 1497.044 888.600, 1495.964 887.227 C 1494.884 885.854, 1494 884.173, 1494 883.492 C 1494 882.200, 1491.484 876.018, 1487.491 867.500 C 1486.202 864.750, 1484 860.025, 1482.598 857 C 1481.196 853.975, 1479.583 850.825, 1479.014 850 C 1478.445 849.175, 1476.827 846.025, 1475.418 843 C 1472.156 835.998, 1470.380 832.863, 1465.656 825.777 C 1463.558 822.630, 1461.540 818.973, 1461.171 817.651 C 1460.522 815.327, 1460.378 815.400, 1456.774 819.874 M 536.374 823.250 C 535.288 824.487, 533.101 827.975, 531.516 831 C 529.930 834.025, 528.108 836.950, 527.466 837.500 C 526.824 838.050, 525.260 841.200, 523.989 844.500 C 522.719 847.800, 521.116 851.175, 520.428 852 C 519.002 853.710, 510.189 872.231, 507.581 879 C 506.627 881.475, 504.808 885.750, 503.539 888.500 C 502.271 891.250, 500.466 895.975, 499.529 899 C 498.592 902.025, 497.033 906.300, 496.064 908.500 C 494.324 912.451, 492.849 916.391, 491.105 921.750 C 490.613 923.263, 489.447 926.750, 488.515 929.500 C 487.583 932.250, 486.209 937.200, 485.462 940.500 C 484.715 943.800, 482.977 949.875, 481.600 954 C 480.223 958.125, 478.384 964.875, 477.514 969 C 476.643 973.125, 475.533 978.300, 475.045 980.500 C 473.178 988.927, 471.957 995.866, 470.560 1006 C 469.764 1011.775, 468.431 1021.225, 467.597 1027 C 466.764 1032.775, 465.572 1047.625, 464.948 1060 C 464.325 1072.375, 463.630 1084.075, 463.405 1086 C 463.179 1087.925, 463.468 1096.250, 464.046 1104.500 C 464.624 1112.750, 465.499 1126.925, 465.992 1136 C 466.485 1145.075, 467.596 1156.247, 468.460 1160.826 C 469.325 1165.406, 470.443 1173.127, 470.946 1177.986 C 472.053 1188.687, 479.162 1221.380, 482.039 1229 C 483.181 1232.025, 484.307 1235.400, 484.541 1236.500 C 484.775 1237.600, 485.243 1239.850, 485.581 1241.500 C 485.920 1243.150, 486.768 1245.407, 487.467 1246.515 C 488.166 1247.623, 489.058 1250.098, 489.450 1252.015 C 490.425 1256.788, 493.858 1267.851, 495.497 1271.500 C 496.238 1273.150, 497.833 1277.650, 499.043 1281.500 C 501.010 1287.763, 502.129 1290.733, 505.074 1297.500 C 505.553 1298.600, 506.856 1301.877, 507.971 1304.782 C 509.085 1307.688, 510.629 1311.063, 511.402 1312.282 C 512.175 1313.502, 513.824 1316.975, 515.067 1320 C 516.309 1323.025, 518.291 1326.850, 519.471 1328.500 C 520.651 1330.150, 522.629 1333.896, 523.868 1336.823 C 525.106 1339.751, 527.667 1344.567, 529.559 1347.525 C 531.452 1350.484, 533 1353.341, 533 1353.875 C 533 1354.409, 534.026 1356.119, 535.280 1357.673 C 536.534 1359.228, 538.856 1362.975, 540.441 1366 C 542.026 1369.025, 544.540 1373.075, 546.028 1375 C 547.516 1376.925, 549.680 1380.300, 550.837 1382.500 C 551.993 1384.700, 554.233 1388.028, 555.813 1389.896 L 558.687 1393.292 696.343 1255.604 C 785.523 1166.404, 834 1117.226, 834 1115.957 C 834 1113.838, 541.640 821, 539.525 821 C 538.878 821, 537.460 822.013, 536.374 823.250 M 982.147 1295.250 C 973.559 1303.638, 966.251 1310.875, 965.906 1311.333 C 965.060 1312.458, 925.639 1352.014, 890.313 1387.187 C 865.309 1412.082, 806.480 1470.988, 802.782 1474.833 C 794.447 1483.499, 767.895 1509.891, 765.939 1511.454 C 762.370 1514.305, 730.082 1548.114, 728.913 1550.224 C 727.835 1552.169, 730.463 1554.135, 742 1560.017 C 745.575 1561.840, 749.175 1563.896, 750 1564.587 C 751.590 1565.918, 756.920 1568.639, 774.119 1576.900 C 779.960 1579.705, 785.141 1582, 785.634 1582 C 786.127 1582, 788.323 1582.963, 790.515 1584.141 C 792.707 1585.318, 797.425 1587.298, 801 1588.541 C 804.575 1589.784, 810.875 1592.371, 815 1594.289 C 819.125 1596.207, 824.525 1598.257, 827 1598.844 C 829.475 1599.431, 834.739 1601.030, 838.697 1602.396 C 842.655 1603.762, 848.955 1605.603, 852.697 1606.486 C 856.439 1607.370, 860.281 1608.522, 861.236 1609.046 C 862.191 1609.571, 864.057 1610, 865.381 1610 C 866.706 1610, 870.649 1610.862, 874.145 1611.916 C 877.640 1612.969, 882.975 1614.147, 886 1614.533 C 892.600 1615.374, 893.624 1615.585, 897.500 1616.900 C 905.992 1619.781, 941.425 1625.224, 960.500 1626.579 C 977.223 1627.766, 1018.383 1627.611, 1037.500 1626.289 C 1061.275 1624.644, 1069.252 1623.597, 1092 1619.135 C 1097.775 1618.003, 1106.325 1616.354, 1111 1615.472 C 1115.675 1614.590, 1120.850 1613.398, 1122.500 1612.824 C 1124.150 1612.249, 1128.200 1611.195, 1131.500 1610.482 C 1134.800 1609.768, 1138.850 1608.696, 1140.500 1608.100 C 1142.150 1607.503, 1147.325 1606.080, 1152 1604.936 C 1156.675 1603.792, 1161.850 1602.226, 1163.500 1601.456 C 1165.150 1600.685, 1169.200 1599.426, 1172.500 1598.658 C 1175.800 1597.890, 1182.550 1595.454, 1187.500 1593.244 C 1192.450 1591.035, 1198.857 1588.467, 1201.738 1587.537 C 1204.619 1586.608, 1207.213 1585.464, 1207.502 1584.996 C 1207.791 1584.529, 1209.709 1583.606, 1211.764 1582.947 C 1220.104 1580.270, 1242.104 1569.325, 1260.174 1558.864 C 1263.845 1556.739, 1267.278 1555, 1267.802 1555 C 1268.326 1555, 1269.262 1554.389, 1269.882 1553.643 C 1270.752 1552.594, 1270.307 1551.401, 1267.922 1548.393 C 1264.640 1544.253, 1241.836 1520.852, 1233.549 1513.120 C 1226.749 1506.776, 1129.480 1409.455, 1124.429 1403.942 C 1122.191 1401.499, 1116.565 1395.900, 1111.928 1391.500 C 1107.290 1387.100, 1101.697 1381.605, 1099.498 1379.289 C 1087.829 1366.997, 999.520 1280, 998.712 1280 C 998.189 1280, 990.736 1286.862, 982.147 1295.250" stroke="none" fill="#040404" fill-rule="evenodd"/></svg>